<svg width="96" height="96" viewBox="0 0 96 96" xmlns="http://www.w3.org/2000/svg" role="img" aria-label="SSC ASI radar icon">
  <defs>
    <linearGradient id="tile" x1="0" y1="0" x2="96" y2="96" gradientUnits="userSpaceOnUse">
      <stop stop-color="#35e0c4"/>
      <stop offset="1" stop-color="#38bdf8"/>
    </linearGradient>
  </defs>
  <rect width="96" height="96" rx="22" fill="url(#tile)"/>
  <!-- Lucide "radar" icon (MIT) — https://lucide.dev/icons/radar -->
  <g transform="translate(24,24) scale(2)" fill="none" stroke="#04120f" stroke-width="2" stroke-linecap="round" stroke-linejoin="round">
    <path d="M19.07 4.93A10 10 0 0 0 6.99 3.34"/>
    <path d="M4 6h.01"/>
    <path d="M2.29 9.62A10 10 0 1 0 21.31 8.35"/>
    <path d="M16.24 7.76A6 6 0 1 0 8.23 16.67"/>
    <path d="M12 18h.01"/>
    <path d="M17.99 11.66A6 6 0 0 1 15.77 16.67"/>
    <circle cx="12" cy="12" r="2"/>
    <path d="m13.41 10.59 5.66-5.66"/>
  </g>
</svg>
