<svg width="76" height="76" viewBox="0 0 40 40" fill="none" xmlns="http://www.w3.org/2000/svg">
  <defs>
    <linearGradient id="g" x1="0" y1="0" x2="40" y2="40" gradientUnits="userSpaceOnUse">
      <stop stop-color="#35e0c4"/>
      <stop offset="1" stop-color="#38bdf8"/>
    </linearGradient>
  </defs>
  <path fill-rule="evenodd" clip-rule="evenodd" d="M27.252 4.16416L19.9767 8.32601L12.699 12.4902V4.16416L19.9767 0L27.252 4.16416ZM37.4394 9.99078L37.444 18.2937L22.9097 9.97922L30.164 5.82893L37.4394 9.99078ZM30.164 25.8245L30.1617 34.1458L37.451 29.9817L37.4463 21.6256L30.164 17.4591V25.8245ZM12.6943 35.8057L19.9767 39.9652L27.252 35.8103V27.4889L12.6943 35.8057ZM12.699 15.8197V24.148L19.9767 28.3099L27.252 24.1573V15.8197L19.9767 11.6579L12.699 15.8197ZM2.5 29.9814L2.50467 21.6462L17.0693 29.9768L9.78233 34.1409L2.5 29.9814ZM9.78698 5.82893L2.51164 9.99309L2.50698 18.3168L9.78698 22.4833V5.82893Z" fill="url(#g)"/>
</svg>
